<svg width="24" height="24" viewBox="0 0 24 24" fill="#111111" xmlns="http://www.w3.org/2000/svg">
    <path d="M5.76027 17.0396C5.16013 17.0396 4.65015 17.2496 4.23011 17.6696C3.81023 18.0899 3.60014 18.5998 3.60014 19.1999C3.60014 19.8001 3.81008 20.31 4.23011 20.7303C4.65031 21.1503 5.16029 21.3603 5.76027 21.3603C6.35031 21.3603 6.85772 21.1503 7.2828 20.7303C7.70772 20.3105 7.92019 19.8001 7.92019 19.1999C7.92019 18.5998 7.70778 18.0903 7.2828 17.6696C6.85767 17.2499 6.35031 17.0396 5.76027 17.0396Z"/>
    <path d="M5.28028 12.4799C5.28028 11.8199 5.04538 11.255 4.57533 10.7846C4.10533 10.3146 3.54024 10.0797 2.88026 10.0797C2.22024 10.0797 1.65525 10.3147 1.1852 10.7846C0.715248 11.2547 0.480301 11.8197 0.480301 12.4799C0.480301 13.1397 0.715196 13.7044 1.1852 14.1746C1.65525 14.6448 2.22024 14.8798 2.88026 14.8798C3.54024 14.8798 4.10533 14.6448 4.57533 14.1746C5.04538 13.7048 5.28028 13.1397 5.28028 12.4799Z"/>
    <path d="M19.2 6.96016C19.5297 6.96016 19.8127 6.84248 20.0474 6.60758C20.2824 6.37248 20.4001 6.08988 20.4001 5.75994C20.4001 5.42985 20.2824 5.14746 20.0474 4.91251C19.8126 4.67741 19.5297 4.55994 19.2 4.55994C18.8699 4.55994 18.5873 4.67762 18.3523 4.91251C18.1174 5.14751 17.9999 5.42985 17.9999 5.75994C17.9999 6.09004 18.1174 6.37248 18.3523 6.60758C18.5873 6.84269 18.8699 6.96016 19.2 6.96016Z"/>
    <path d="M5.76042 3.12009C5.03031 3.12009 4.40784 3.37763 3.89282 3.89255C3.37774 4.40747 3.12036 5.02999 3.12036 5.75994C3.12036 6.49016 3.37774 7.11241 3.89282 7.62754C4.408 8.14262 5.03047 8.40011 5.76042 8.40011C6.49038 8.40011 7.11289 8.14246 7.62781 7.62754C8.14273 7.11241 8.40027 6.49 8.40027 5.75994C8.40027 5.02999 8.14273 4.40747 7.62781 3.89255C7.11289 3.37763 6.49038 3.12009 5.76042 3.12009Z"/>
    <path d="M23.0999 11.4597C22.82 11.1797 22.48 11.0399 22.0801 11.0399C21.6799 11.0399 21.3399 11.1797 21.06 11.4597C20.7803 11.7398 20.6404 12.0798 20.6404 12.4801C20.6404 12.8799 20.7803 13.2204 21.06 13.4998C21.3401 13.7799 21.6799 13.9198 22.0801 13.9198C22.48 13.9198 22.8202 13.7799 23.0999 13.4998C23.38 13.2201 23.5197 12.8799 23.5197 12.4801C23.5197 12.08 23.3802 11.7399 23.0999 11.4597Z"/>
    <path d="M19.2 17.5198C18.7397 17.5198 18.3448 17.6847 18.0147 18.0148C17.685 18.3445 17.5199 18.7397 17.5199 19.2C17.5199 19.6599 17.685 20.0551 18.0147 20.3852C18.3448 20.7153 18.7398 20.88 19.2 20.88C19.6599 20.88 20.0549 20.7149 20.385 20.3852C20.7151 20.0551 20.88 19.6601 20.88 19.2C20.88 18.7397 20.7151 18.3449 20.385 18.0148C20.055 17.6846 19.6599 17.5198 19.2 17.5198Z"/>
    <path d="M12.4801 20.1595C11.9501 20.1595 11.4976 20.3474 11.1223 20.7225C10.7475 21.0975 10.5599 21.5498 10.5599 22.0799C10.5599 22.6099 10.7473 23.0623 11.1223 23.4373C11.4976 23.8123 11.9499 24.0001 12.4801 24.0001C13.0102 24.0001 13.4625 23.8123 13.8376 23.4373C14.2126 23.0623 14.4001 22.6099 14.4001 22.0799C14.4001 21.5498 14.2126 21.0975 13.8376 20.7225C13.4625 20.3474 13.0102 20.1595 12.4801 20.1595Z"/>
    <path d="M12.4801 0C11.6802 0 10.9999 0.279867 10.4399 0.839864C9.87999 1.39991 9.60001 2.08006 9.60001 2.88C9.60001 3.67999 9.87988 4.35982 10.4399 4.91992C10.9999 5.47981 11.6801 5.75984 12.4801 5.75984C13.2804 5.75984 13.9602 5.47997 14.52 4.91992C15.0799 4.36008 15.3599 3.67999 15.3599 2.88C15.3599 2.08012 15.0799 1.40012 14.52 0.839864C13.9602 0.280025 13.2804 0 12.4801 0Z"/>
</svg>
