<svg id="Слой_1" data-name="Слой 1" xmlns="http://www.w3.org/2000/svg" viewBox="0 0 552.13 389.39"><defs><style>.cls-1,.cls-5{fill:none;stroke-miterlimit:10;stroke-width:4px;}.cls-1{stroke:#333;}.cls-2{fill:#6ca9e0;}.cls-3{fill:#3eb5f1;}.cls-4{fill:#333;}.cls-5{stroke:#b7b7b7;}</style></defs><title>Список</title><rect class="cls-1" x="2" y="2" width="548" height="116" rx="11.34" ry="11.34"/><polygon class="cls-2" points="487.73 46.85 506.38 46.85 497.05 59.98 487.73 73.12 478.4 59.98 469.08 46.85 487.73 46.85"/><rect class="cls-3" x="369.09" y="414.82" width="279" height="9" transform="translate(694.47 479.32) rotate(180)"/><rect class="cls-4" x="369.01" y="565.29" width="360" height="2.83" transform="translate(775.31 774.1) rotate(180)"/><rect class="cls-4" x="369.01" y="684.29" width="360" height="2.83" transform="translate(775.31 1012.1) rotate(180)"/><path class="cls-5" d="M10.63,145.39H544.46a5.67,5.67,0,0,1,5.67,5.67V381.72a5.67,5.67,0,0,1-5.67,5.67H7.8a5.67,5.67,0,0,1-5.67-5.67V153.89A8.5,8.5,0,0,1,10.63,145.39Z"/><line class="cls-5" x1="1.5" y1="266.39" x2="550.76" y2="266.39"/></svg>