<svg id="Слой_1" data-name="Слой 1" xmlns="http://www.w3.org/2000/svg" viewBox="0 0 552 499"><defs><style>.cls-1{fill:none;stroke:#333;stroke-miterlimit:10;stroke-width:4px;}.cls-2{fill:#333;}.cls-3{fill:#3eb5f1;}</style></defs><title>Гибрид</title><path class="cls-1" d="M10.5,2H544.33A5.67,5.67,0,0,1,550,7.67V491.33a5.67,5.67,0,0,1-5.67,5.67H7.67A5.67,5.67,0,0,1,2,491.33V10.5A8.5,8.5,0,0,1,10.5,2Z"/><circle class="cls-1" cx="271.29" cy="208.87" r="54.13"/><line class="cls-1" x1="1.24" y1="389" x2="550.5" y2="389"/><rect class="cls-2" x="369.45" y="772.91" width="220.11" height="2.83" transform="translate(636.05 1216.83) rotate(180)"/><rect class="cls-2" x="658.4" y="772.91" width="88.04" height="2.83" transform="translate(1081.9 1216.83) rotate(180)"/><rect class="cls-2" x="603.97" y="772.91" width="44.02" height="2.83" transform="translate(929.01 1216.83) rotate(180)"/><path class="cls-3" d="M579.66,516.56h96.67a2.83,2.83,0,0,1,2.83,2.83v6.17a0,0,0,0,1,0,0H579.66a2.83,2.83,0,0,1-2.83-2.83v-3.33A2.83,2.83,0,0,1,579.66,516.56Z" transform="translate(1117.56 113.61) rotate(135)"/><path class="cls-3" d="M562.61,536.83h42.17a0,0,0,0,1,0,0V543a2.83,2.83,0,0,1-2.83,2.83H562.61a2.83,2.83,0,0,1-2.83-2.83v-3.33A2.83,2.83,0,0,1,562.61,536.83Z" transform="translate(230.38 -585.01) rotate(45)"/></svg>